<?xml version="1.0" standalone="no"?>
<!DOCTYPE svg PUBLIC "-//W3C//DTD SVG 20010904//EN"
 "http://www.w3.org/TR/2001/REC-SVG-20010904/DTD/svg10.dtd">
<svg version="1.0" xmlns="http://www.w3.org/2000/svg"
 width="720.000000pt" height="720.000000pt" viewBox="0 0 720.000000 720.000000"
 preserveAspectRatio="xMidYMid meet">
<metadata>
Created by potrace 1.14, written by Peter Selinger 2001-2017
</metadata>
<g transform="translate(0.000000,720.000000) scale(0.100000,-0.100000)"
fill="#000000" stroke="none">
<path d="M415 6788 c-16 -5 -37 -12 -45 -15 -8 -3 -19 -7 -25 -8 -46 -11 -174
-108 -225 -171 -32 -40 -80 -125 -80 -142 0 -10 -3 -22 -7 -26 -5 -4 -9 -12
-9 -17 -1 -5 -2 -10 -3 -11 -14 -17 -16 -434 -16 -2798 l0 -2745 24 -69 c26
-76 68 -151 115 -204 46 -50 163 -130 208 -141 4 -1 25 -10 45 -19 36 -16 239
-17 3128 -19 2637 -2 3097 0 3140 12 186 53 310 156 383 320 50 114 48 -15 47
2880 -1 1491 -4 2720 -8 2732 -4 12 -10 32 -12 45 -3 13 -21 57 -41 98 -57
116 -166 215 -299 271 -112 47 -292 43 -410 -8 -83 -36 -123 -67 -296 -224
-14 -13 -61 -55 -103 -94 -43 -38 -93 -83 -111 -100 -18 -16 -67 -61 -110
-100 -43 -38 -97 -88 -121 -110 -24 -22 -73 -67 -110 -100 -37 -33 -79 -71
-94 -85 -15 -14 -63 -57 -106 -97 -43 -39 -91 -82 -105 -95 -227 -206 -252
-228 -261 -228 -5 0 -8 -7 -8 -15 0 -8 -4 -15 -8 -15 -4 0 -28 -18 -52 -40
-25 -23 -63 -57 -85 -77 -22 -20 -76 -68 -120 -108 -44 -40 -104 -95 -134
-122 -30 -26 -68 -61 -86 -78 -32 -31 -75 -69 -210 -190 -43 -38 -93 -85 -112
-102 -18 -18 -35 -33 -37 -33 -2 0 -23 -19 -48 -42 -106 -102 -172 -147 -263
-179 -121 -42 -274 -39 -384 9 -20 9 -38 16 -41 17 -20 5 -60 30 -60 37 0 4
-5 8 -11 8 -6 0 -16 6 -23 13 -7 6 -39 35 -72 64 -32 28 -71 62 -85 75 -14 12
-63 57 -109 98 -123 110 -122 110 -198 178 -38 35 -80 72 -93 83 -31 26 -150
133 -199 179 -33 30 -120 108 -181 160 -34 31 -183 166 -220 200 -20 19 -59
54 -86 76 -26 23 -62 55 -79 70 -41 39 -177 161 -239 215 -72 64 -246 221
-271 244 -11 11 -51 47 -89 80 -66 57 -94 83 -195 175 -25 23 -67 60 -94 83
-27 23 -63 56 -80 72 -44 42 -176 125 -176 110 0 -3 -15 2 -32 12 -26 13 -61
18 -158 19 -69 1 -138 -2 -155 -8z"/>
</g>
</svg>
